<?xml version="1.0" standalone="no"?><!DOCTYPE svg PUBLIC "-//W3C//DTD SVG 1.1//EN" "http://www.w3.org/Graphics/SVG/1.1/DTD/svg11.dtd"><svg t="1523855076081" class="icon" style="" viewBox="0 0 1024 1024" version="1.1" xmlns="http://www.w3.org/2000/svg" p-id="7681" xmlns:xlink="http://www.w3.org/1999/xlink" width="40" height="40"><defs><style type="text/css"></style></defs><path d="M888.199081 357.349781c12.522198-12.417821 12.626575-32.641421 0.209778-45.11143-6.235005-6.287193-14.408151-9.43079-22.686698-9.43079-8.120958 0-16.241916 3.091408-22.475897 9.274224L511.649006 640.639822 184.662767 310.614363c-6.235005-6.287193-14.46034-9.43079-22.633486-9.43079-8.120958 0-16.241916 3.091408-22.476921 9.274224-12.522198 12.364609-12.626575 32.536021-0.209778 45.110407l349.201194 352.396979c12.416797 12.522198 32.640398 12.574387 45.162596 0.209778 0.104377-0.105401 0.157589-0.314155 0.261966-0.471744 0.523933-0.471744 1.257643-0.62831 1.781576-1.152243L888.199081 357.349781 888.199081 357.349781M888.199081 357.349781 888.199081 357.349781z" p-id="7682" fill="#0D6FB8"></path></svg>